<svg width="60" height="82" viewBox="0 0 60 82" fill="none" xmlns="http://www.w3.org/2000/svg">
<path fill-rule="evenodd" clip-rule="evenodd" d="M33.8111 0H10C4.47715 0 0 4.47715 0 10V72C0 77.5229 4.47716 82 10 82H49.7917C55.3145 82 59.7917 77.5229 59.7917 72V25.9806L33.8111 0Z" fill="#282828"/>
<path fill-rule="evenodd" clip-rule="evenodd" d="M33.8247 -7.24792e-05V15.9666C33.8247 21.4894 38.3019 25.9666 43.8247 25.9666H59.7914L33.8247 -7.24792e-05Z" fill="#525252"/>
<path d="M3.41675 5.05833C3.00253 5.05833 2.66675 5.39412 2.66675 5.80833C2.66675 6.22255 3.00253 6.55833 3.41675 6.55833L3.41675 5.05833ZM23.9693 19.3398V20.0898C24.3011 20.0898 24.5934 19.8719 24.6881 19.5539L23.9693 19.3398ZM26.6501 10.3401L27.3689 10.5542C27.4365 10.3272 27.3929 10.0817 27.2514 9.89182C27.1098 9.70196 26.8869 9.59011 26.6501 9.59011V10.3401ZM8.07618 10.3401L7.33098 10.4248L7.33098 10.4248L8.07618 10.3401ZM23.9693 23.2812C24.3835 23.2812 24.7193 22.9454 24.7193 22.5312C24.7193 22.117 24.3835 21.7812 23.9693 21.7812V23.2812ZM9.09743 19.8984C14.1985 19.8984 17.1713 19.9462 19.2367 19.9939C21.2942 20.0414 22.4792 20.0898 23.9693 20.0898V18.5898C22.5021 18.5898 21.3574 18.5425 19.2714 18.4943C17.1932 18.4463 14.2088 18.3984 9.09743 18.3984V19.8984ZM24.6881 19.5539L27.3689 10.5542L25.9313 10.126L23.2505 19.1257L24.6881 19.5539ZM3.41675 6.55833C5.2655 6.55833 6.19912 7.46552 6.71301 8.39056C7.2523 9.36136 7.32293 10.354 7.33098 10.4248L8.82138 10.2554C8.82344 10.2735 8.81212 10.1471 8.79287 10.0068C8.77217 9.85594 8.73842 9.65138 8.68354 9.41114C8.57451 8.93382 8.37851 8.29982 8.02426 7.66214C7.29713 6.35321 5.90829 5.05833 3.41675 5.05833L3.41675 6.55833ZM7.33098 10.4248C7.9681 16.0315 7.9697 16.3011 8.35373 19.2454L9.84113 19.0513C9.45922 16.1234 9.46082 15.8824 8.82138 10.2554L7.33098 10.4248ZM26.6501 9.59011H8.07618V11.0901H26.6501V9.59011ZM8.35373 19.2454C8.42935 19.8251 8.48932 20.3738 8.55378 20.8099C8.61876 21.2494 8.70074 21.6738 8.84983 22.0353C9.00765 22.418 9.25466 22.7644 9.65869 22.9951C10.0421 23.214 10.486 23.2812 10.9484 23.2812V21.7812C10.6131 21.7812 10.4661 21.7288 10.4023 21.6924C10.3591 21.6677 10.3025 21.6232 10.2365 21.4634C10.1619 21.2824 10.1001 21.0126 10.0377 20.5905C9.97472 20.1648 9.92369 19.6843 9.84113 19.0513L8.35373 19.2454ZM10.9484 23.2812H23.9693V21.7812H10.9484V23.2812Z" fill="#FFDD02"/>
<circle cx="11.459" cy="24.8929" r="1.1489" stroke="#FFDD02" stroke-width="1.5"/>
<circle cx="21.9265" cy="24.8929" r="1.1489" stroke="#FFDD02" stroke-width="1.5"/>
<path d="M21.9626 54.4234H53.3004" stroke="#FFDD02" stroke-width="1.5" stroke-linecap="round" stroke-linejoin="round"/>
<path d="M6.4917 53.2374L10.5744 57.3985L16.6071 51.25" stroke="#FFDD02" stroke-width="1.5" stroke-linecap="round" stroke-linejoin="round"/>
<path d="M21.9626 71.5068H53.3004" stroke="#FFDD02" stroke-width="1.5" stroke-linecap="round" stroke-linejoin="round"/>
<path d="M6.4917 70.3207L10.5744 74.4819L16.6071 68.3333" stroke="#FFDD02" stroke-width="1.5" stroke-linecap="round" stroke-linejoin="round"/>
<path d="M21.9626 37.3401H53.3004" stroke="#FFDD02" stroke-width="1.5" stroke-linecap="round" stroke-linejoin="round"/>
<path d="M6.4917 36.1541L10.5744 40.3152L16.6071 34.1667" stroke="#FFDD02" stroke-width="1.5" stroke-linecap="round" stroke-linejoin="round"/>
</svg>
