<svg width="175" height="240" viewBox="0 0 175 240" fill="none" xmlns="http://www.w3.org/2000/svg">
<path fill-rule="evenodd" clip-rule="evenodd" d="M98.96 0H10C4.47715 0 0 4.47716 0 10V230C0 235.523 4.47715 240 10 240H165C170.523 240 175 235.523 175 230V76.04L98.96 0Z" fill="#282828"/>
<path fill-rule="evenodd" clip-rule="evenodd" d="M99 0V66C99 71.5229 103.477 76 109 76H175L99 0Z" fill="#525252"/>
<path d="M10 14.5C8.61929 14.5 7.5 15.6193 7.5 17C7.5 18.3807 8.61929 19.5 10 19.5L10 14.5ZM70.1538 56.6044V59.1044C71.2597 59.1044 72.2341 58.3779 72.5498 57.3181L70.1538 56.6044ZM78 30.2637L80.396 30.9774C80.6213 30.2209 80.4761 29.4023 80.0043 28.7694C79.5324 28.1366 78.7894 27.7637 78 27.7637V30.2637ZM23.6374 30.2637L21.1533 30.546L21.1533 30.546L23.6374 30.2637ZM70.1538 68.445C71.5346 68.445 72.6538 67.3258 72.6538 65.945C72.6538 64.5643 71.5346 63.445 70.1538 63.445V68.445ZM26.6264 58.544C41.5543 58.544 50.2529 58.6839 56.2953 58.8235C62.3114 58.9625 65.7878 59.1044 70.1538 59.1044V54.1044C65.8643 54.1044 62.5219 53.9661 56.4108 53.8248C50.3259 53.6842 41.5886 53.544 26.6264 53.544V58.544ZM72.5498 57.3181L80.396 30.9774L75.604 29.55L67.7579 55.8907L72.5498 57.3181ZM10 19.5C15.2803 19.5 17.9204 22.0764 19.3811 24.7058C20.9265 27.4877 21.1295 30.336 21.1533 30.546L26.1214 29.9815C26.129 30.0483 26.0938 29.6606 26.037 29.2468C25.9754 28.7978 25.8752 28.1901 25.7122 27.4769C25.3888 26.061 24.8066 24.1763 23.7519 22.2777C21.5804 18.3687 17.423 14.5 10 14.5L10 19.5ZM21.1533 30.546C23.0176 46.9517 23.0229 47.7467 24.1474 56.3673L29.1054 55.7206C27.988 47.1544 27.9934 46.4549 26.1214 29.9815L21.1533 30.546ZM78 27.7637H23.6374V32.7637H78V27.7637ZM24.1474 56.3673C24.3673 58.0534 24.5446 59.6732 24.7336 60.9515C24.9243 62.2414 25.1684 63.515 25.6198 64.6097C26.1004 65.7751 26.8621 66.8505 28.1179 67.5674C29.3052 68.2452 30.6645 68.445 32.044 68.445V63.445C31.0882 63.445 30.7185 63.2946 30.5968 63.2252C30.5437 63.1948 30.4165 63.126 30.2422 62.7035C30.0388 62.2103 29.862 61.4523 29.6799 60.2202C29.496 58.9765 29.3484 57.584 29.1054 55.7206L24.1474 56.3673ZM32.044 68.445H70.1538V63.445H32.044V68.445Z" fill="#FFDD02"/>
<circle cx="33.5385" cy="72.8572" r="3.36264" stroke="#FFDD02" stroke-width="3"/>
<circle cx="64.1758" cy="72.8572" r="3.36264" stroke="#FFDD02" stroke-width="3"/>
<path d="M64.2797 159.288H156" stroke="#FFDD02" stroke-width="5" stroke-linecap="round" stroke-linejoin="round"/>
<path d="M19 155.817L30.9494 167.996L48.6059 150" stroke="#FFDD02" stroke-width="5" stroke-linecap="round" stroke-linejoin="round"/>
<path d="M64.2797 209.288H156" stroke="#FFDD02" stroke-width="5" stroke-linecap="round" stroke-linejoin="round"/>
<path d="M19 205.817L30.9494 217.996L48.6059 200" stroke="#FFDD02" stroke-width="5" stroke-linecap="round" stroke-linejoin="round"/>
<path d="M64.2797 109.288H156" stroke="#FFDD02" stroke-width="5" stroke-linecap="round" stroke-linejoin="round"/>
<path d="M19 105.817L30.9494 117.996L48.6059 100" stroke="#FFDD02" stroke-width="5" stroke-linecap="round" stroke-linejoin="round"/>
</svg>
